<svg width="128" height="106" viewBox="0 0 128 106" fill="none" xmlns="http://www.w3.org/2000/svg">
<rect x="1" y="1" width="126" height="30.0465" rx="8.84615" stroke="#CECED2" stroke-width="2" stroke-linecap="square"/>
<rect x="9.69995" y="9.62793" width="12.9126" height="12.7907" rx="6.38462" stroke="#CECED2" stroke-width="2" stroke-linecap="square"/>
<path d="M29.8252 11.093H89.3514" stroke="#CECED2" stroke-width="2"/>
<path d="M29.8252 18.4884H76.9292" stroke="#CECED2" stroke-width="2"/>
<path d="M103.146 16.926L106.649 20.4003L116.033 11.093" stroke="#CECED2" stroke-width="2" stroke-linecap="square"/>
<rect x="1" y="74.9534" width="126" height="30.0465" rx="8.84615" stroke="#CECED2" stroke-width="2" stroke-linecap="square"/>
<rect x="9.69995" y="83.5813" width="12.9126" height="12.7907" rx="6.38462" stroke="#CECED2" stroke-width="2" stroke-linecap="square"/>
<path d="M29.8252 85.0464H89.3514" stroke="#CECED2" stroke-width="2"/>
<path d="M29.8252 92.4418H76.9292" stroke="#CECED2" stroke-width="2"/>
<path d="M103.146 90.8794L106.649 94.3537L116.033 85.0464" stroke="#CECED2" stroke-width="2" stroke-linecap="square"/>
<rect x="1" y="37.9768" width="126" height="30.0465" rx="8.84615" stroke="#CECED2" stroke-width="2" stroke-linecap="square"/>
<rect x="9.69995" y="46.6047" width="12.9126" height="12.7907" rx="6.38462" stroke="#CECED2" stroke-width="2" stroke-linecap="square"/>
<path d="M29.8252 46.8373H89.3514" stroke="#CECED2" stroke-width="2"/>
<path d="M29.8252 54.2326H76.9292" stroke="#CECED2" stroke-width="2"/>
<path d="M106.649 57.3771L116.033 48.0698" stroke="#CECED2" stroke-width="2" stroke-linecap="square"/>
<path d="M116.033 57.3771L106.649 48.0698" stroke="#CECED2" stroke-width="2" stroke-linecap="square"/>
</svg>
