<svg width="127" height="127" viewBox="0 0 127 127" fill="none" xmlns="http://www.w3.org/2000/svg">
<path fill-rule="evenodd" clip-rule="evenodd" d="M101 41C112.046 41 121 32.0457 121 21C121 9.9543 112.046 1 101 1C89.9543 1 81 9.9543 81 21C81 32.0457 89.9543 41 101 41Z" stroke="#E1E2E5" stroke-width="2" stroke-linecap="square"/>
<path fill-rule="evenodd" clip-rule="evenodd" d="M25 63C36.0457 63 45 54.0457 45 43C45 31.9543 36.0457 23 25 23C13.9543 23 5 31.9543 5 43C5 54.0457 13.9543 63 25 63Z" stroke="#E1E2E5" stroke-width="2" stroke-linecap="square"/>
<path fill-rule="evenodd" clip-rule="evenodd" d="M63 93C74.0457 93 83 84.0457 83 73C83 61.9543 74.0457 53 63 53C51.9543 53 43 61.9543 43 73C43 84.0457 51.9543 93 63 93Z" stroke="#E1E2E5" stroke-width="2" stroke-linecap="square"/>
<path d="M87 124.649V119C87 105.745 76.2548 95 63 95C49.7452 95 39 105.745 39 119V124.95" stroke="#E1E2E5" stroke-width="2" stroke-linecap="square"/>
<path d="M125.604 125.276V67C125.604 53.7452 114.859 43 101.604 43C91.1862 43 82.3183 49.6384 79 58.916" stroke="#E1E2E5" stroke-width="2" stroke-linecap="square"/>
<path d="M108.797 125.379H9C4.58172 125.379 1 121.797 1 117.379V89C1 75.7452 11.7452 65 25 65C31.8401 65 38.0118 67.8614 42.3835 72.4526" stroke="#E1E2E5" stroke-width="2" stroke-linecap="square"/>
</svg>
